<?xml version="1.0" standalone="no"?>
<!DOCTYPE svg PUBLIC "-//W3C//DTD SVG 20010904//EN"
 "http://www.w3.org/TR/2001/REC-SVG-20010904/DTD/svg10.dtd">
<svg version="1.0" xmlns="http://www.w3.org/2000/svg"
 width="1000.000000pt" height="396.000000pt" viewBox="0 0 1000.000000 396.000000"
 preserveAspectRatio="xMidYMid meet">

<g transform="translate(0.000000,396.000000) scale(0.100000,-0.100000)"
fill="#000000" stroke="none">
<path d="M5775 3104 c-44 -30 -57 -34 -115 -34 -120 0 -111 9 -194 -216 -344
-943 -582 -1573 -599 -1592 -23 -25 -59 -29 -76 -8 -7 8 -11 31 -10 53 1 28
-79 258 -315 898 -365 992 -337 919 -345 908 -3 -5 -17 -17 -31 -26 -20 -14
-49 -17 -157 -17 -73 0 -133 -4 -133 -9 0 -4 188 -493 419 -1084 311 -801 424
-1082 442 -1096 21 -18 39 -20 164 -21 77 0 145 4 152 8 18 11 864 2192 856
2206 -4 6 -6 23 -4 38 1 16 1 28 -1 27 -2 0 -25 -16 -53 -35z"/>
<path d="M7585 3099 c-353 -45 -572 -220 -629 -503 -9 -43 -16 -92 -16 -110 0
-17 -7 -42 -16 -54 -19 -28 -12 -66 27 -142 106 -206 287 -309 723 -411 116
-27 249 -60 296 -75 174 -53 293 -128 306 -193 4 -17 13 -31 20 -31 28 0 47
-49 48 -123 0 -61 -4 -81 -29 -130 -55 -111 -177 -196 -339 -237 -155 -39
-393 -23 -543 37 -92 37 -191 131 -196 185 -1 13 -12 37 -23 53 -38 54 -65
115 -75 173 -6 31 -13 60 -16 65 -2 4 -19 -4 -37 -18 -27 -21 -44 -25 -99 -25
-75 0 -115 -12 -123 -37 -3 -10 -11 -30 -19 -46 -13 -24 -12 -35 7 -95 28 -92
57 -146 127 -239 163 -216 429 -323 803 -323 320 0 570 103 714 295 91 120
124 221 124 376 0 147 -35 264 -112 377 -21 30 -36 42 -54 42 -13 0 -75 25
-136 56 -162 81 -253 109 -690 213 -242 58 -371 126 -366 194 1 18 -7 45 -18
61 -44 69 -9 211 71 285 97 89 214 125 415 125 210 0 345 -45 431 -142 39 -45
79 -145 79 -198 0 -14 6 -24 14 -24 8 0 16 -7 20 -15 5 -13 28 -15 148 -13
l143 3 3 34 c5 49 -33 206 -67 277 -44 91 -102 165 -125 160 -12 -3 -74 21
-150 59 -142 70 -234 97 -398 114 -110 12 -143 12 -243 0z"/>
<path d="M1010 3063 c-41 -14 -40 4 -40 -1060 l0 -1023 -25 -16 c-28 -18 -36
-74 -11 -74 8 0 16 -7 20 -15 5 -13 28 -15 148 -13 l143 3 5 463 c4 397 7 464
20 472 26 17 545 12 618 -5 132 -31 260 -122 315 -224 15 -26 76 -188 135
-359 82 -233 115 -316 133 -331 22 -19 36 -20 174 -18 134 2 150 4 153 19 4
20 -226 655 -266 733 -44 88 -101 165 -122 165 -22 0 -107 38 -116 51 -2 5 4
14 15 21 14 8 17 16 10 24 -6 8 7 17 47 33 127 48 237 147 297 266 47 94 61
161 61 285 0 165 -40 305 -120 426 -30 45 -41 54 -66 54 -16 0 -66 18 -111 39
-104 50 -174 68 -318 81 -116 10 -1071 13 -1099 3z m1050 -233 c95 -14 160
-35 214 -72 53 -34 81 -72 97 -132 6 -21 22 -48 35 -60 54 -46 51 -185 -7
-303 -34 -72 -70 -105 -155 -145 -113 -53 -162 -58 -585 -58 -368 0 -388 1
-410 19 -21 17 -22 22 -11 40 9 16 12 105 12 355 0 291 2 337 16 350 13 14 61
16 372 16 196 0 386 -5 422 -10z"/>
<path d="M3291 1299 c-52 -21 -84 -54 -117 -121 -18 -39 -41 -76 -50 -83 -24
-17 -13 -52 41 -123 65 -86 128 -117 226 -110 81 6 133 36 183 106 51 72 45
214 -14 310 -18 28 -22 31 -40 20 -15 -10 -29 -10 -65 0 -53 14 -130 15 -164
1z"/>
<path d="M6195 1293 c-51 -26 -76 -55 -105 -118 -15 -33 -34 -66 -43 -74 -21
-17 -21 -34 -1 -74 32 -61 86 -116 140 -143 46 -22 64 -26 118 -22 195 12 286
219 180 405 -22 38 -27 41 -44 31 -15 -10 -29 -10 -65 0 -62 16 -144 14 -180
-5z"/>
<path d="M9115 1293 c-52 -27 -83 -63 -111 -129 -15 -36 -35 -66 -45 -69 -15
-5 -16 -10 -7 -38 15 -46 86 -136 131 -165 29 -19 54 -26 110 -29 65 -4 78 -2
127 24 66 35 116 101 126 170 13 91 -51 274 -84 241 -9 -9 -26 -9 -70 0 -78
16 -141 15 -177 -5z"/>
</g>
</svg>
